# xmcd CD database file
# Copyright (C) 1997 Ti Kan
#
# Track frame offsets:
#  182
#  13385
#  28097
#  35645
#  41550
#  54062
#  62237
#  74002
#  93310
#  98235
#  110632
#  121240
#  129332
#  136752
#  145115
#  159625
#
# Disc length: 2238 seconds
#
# Revision: 1
# Processed by: cddbd v1.4b41PL1 Copyright (c) Steve Scherf et al.
# Submitted via: CDWizzard Release:4.32
#
DISCID=e208bc10
DTITLE=Theodore Bikel - Theodore Bikel Sings Jewish Favorites
DYEAR=1900
DGENRE=
TTITLE0=DER REBBE ELIMELECH
TTITLE1=DI YONTEVDIKE TEYG
TTITLE2=SHA SHTIL
TTITLE3=DI BAN
TTITLE4=KUM AHER DU FILOZOF
TTITLE5=DI MEZINKE
TTITLE6=A SUDENYU
TTITLE7=ACHTSIK ER UN ZIBETSIK ZI
TTITLE8=DI MAME IZ GEGANGEN MARGARITKELECH
TTITLE9=MARGARITKELECH
TTITLE10=MU ASAPRU
TTITLE11=LOMIR ZICH IBERBETEN
TTITLE12=HOMENTASHN
TTITLE13=A CHAZN OYF SHABES
TTITLE14=REYZL
TTITLE15=TUMBALALAYKA
EXTD=
EXTT0=
EXTT1=
EXTT2=
EXTT3=
EXTT4=
EXTT5=
EXTT6=
EXTT7=
EXTT8=
EXTT9=
EXTT10=
EXTT11=
EXTT12=
EXTT13=
EXTT14=
EXTT15=
PLAYORDER=
